<svg xmlns="http://www.w3.org/2000/svg" viewBox="0 0 32 32">
	<path d="M9.5 1.4C-.6 5.8-3 19.2 4.9 27.1c6.5 6.5 15.7 6.5 22.2 0C39.5 14.7 25.6-5.6 9.5 1.4zM22.7 4c6.5 3.9 8.5 10.5 5.4 17.5-1.1 2.5-2.5 4.5-3 4.5-1.4 0-1.4-1.7-.1-2.5.6-.3 1-1.9 1-3.5 0-3.8-3.9-6.7-6.9-5.1-2.9 1.6-3.2 1.4-2.7-1.4.3-1.4-.2-3.1-1-3.9S14 7.6 14 7s-.5-.8-1.2-.4c-.7.5-2 .9-2.9.9-2.2.2-4.4 2.6-4.3 4.5.1.8.2 2.3.3 3.2 0 1 1 2.7 2 3.7 1.6 1.6 1.7 2 .5 2.5-.8.3-1.4 1.2-1.4 2.1 0 2.7-1.7 1.6-3.5-2.1C-2 9.7 11.7-2.8 22.7 4zm-7.1 17.7c-1.3 1.4-2.5-.9-1.3-2.8 1.2-2 1.2-2 1.5.1.2 1.2.1 2.4-.2 2.7zm2.4 3.9c0 .8-.4 1.4-1 1.4-.5 0-1-.9-1-2.1 0-1.1.5-1.7 1-1.4.6.3 1 1.3 1 2.1z"/>
	<style>
        path {
            fill:#000000;
        }
        @media (prefers-color-scheme: dark) {
            path {
                fill:#ffffff;
            }
        }
    </style>
</svg>